<svg width="49" height="48" viewBox="0 0 49 48" fill="none" xmlns="http://www.w3.org/2000/svg">
<path d="M38.0544 34.554C37.7257 34.5584 37.7618 34.5405 37.3248 34.5747V23.1482C37.3248 21.9253 36.4346 20.9303 35.3405 20.9303H30.3306C30.3279 20.9303 30.3253 20.9299 30.3226 20.9299H24.5535V3.71617L29.285 8.82784C29.5525 9.11681 29.7058 9.52086 29.7058 9.93657V18.3698C29.7058 18.7505 29.982 19.0592 30.3226 19.0592C30.6632 19.0592 30.9394 18.7505 30.9394 18.3698V9.93657C30.9394 9.14926 30.6489 8.38382 30.1424 7.83658L24.3654 1.59549C24.2355 1.45928 23.9867 1.33703 23.7402 1.43768L13.3766 5.33106V2.64724C13.3845 1.47453 12.443 0.453854 11.3479 0.524994C10.3004 0.524994 9.44819 1.47702 9.44819 2.64724V6.80689L6.73676 7.82555C5.67171 8.22573 4.95609 9.33823 4.95609 10.5941V34.5578C2.21143 34.6364 0 37.1544 0 40.2405V43.7459C0 44.6975 0.692681 45.4716 1.54408 45.4716H40.5611C41.4126 45.4716 42.1052 44.6974 42.1052 43.7459V39.0813C42.1053 36.585 40.2881 34.554 38.0544 34.554ZM38.0544 35.9327C39.6079 35.9327 40.8717 37.3452 40.8717 39.0814V39.8046H34.889V39.0814C34.8904 37.1971 36.3717 35.7695 38.0544 35.9327ZM36.0913 23.1482V34.9304C34.6592 35.6291 33.6554 37.2263 33.6554 39.0813V39.8045H24.5535V22.309H35.3405C35.7544 22.309 36.0913 22.6855 36.0913 23.1482ZM10.6817 2.64724C10.6817 2.23722 10.9806 1.90367 11.3479 1.90367C11.6777 1.84953 12.1219 2.1386 12.1431 2.64724V5.79448L10.6817 6.34347V2.64724ZM4.95617 35.9352V39.8046H1.25312C1.44498 37.6812 3.0222 36.0082 4.95617 35.9352ZM1.23355 43.746V41.1833H4.95617V44.093H1.54416C1.37286 44.093 1.23355 43.9373 1.23355 43.746ZM6.18972 10.5941C6.18972 9.93106 6.56752 9.34374 7.12985 9.13244L23.3201 3.05009V6.80606L9.86842 11.8596C9.54556 11.9809 9.37179 12.3718 9.48034 12.7327C9.56694 13.0208 9.80724 13.2026 10.0649 13.2026C10.13 13.2026 10.1963 13.191 10.2615 13.1664L23.3201 8.26066V11.7675L9.86842 16.821C9.54556 16.9424 9.37179 17.3333 9.48034 17.6941C9.56694 17.9822 9.80724 18.164 10.0649 18.164C10.13 18.164 10.1963 18.1524 10.2615 18.1278L23.3201 13.222V16.7289L9.86842 21.7824C9.54556 21.9037 9.37179 22.2946 9.48034 22.6555C9.56694 22.9436 9.80724 23.1254 10.0649 23.1254C10.13 23.1254 10.1963 23.1138 10.2615 23.0892L23.3201 18.1835V21.6171C23.3201 21.618 23.32 21.6188 23.32 21.6198V21.6904L9.86842 26.7438C9.54556 26.8652 9.37179 27.2561 9.48034 27.6169C9.56694 27.905 9.80724 28.0868 10.0649 28.0868C10.13 28.0868 10.1963 28.0752 10.2615 28.0506L23.3199 23.1448V26.6517L14.9205 29.8073C14.5976 29.9285 14.4238 30.3194 14.5324 30.6803C14.619 30.9684 14.8593 31.1502 15.1169 31.1502C15.1821 31.1502 15.2484 31.1386 15.3136 31.1141L23.3199 28.1062V44.0929H17.9916V36.93C17.9916 36.4605 17.7997 36.0283 17.465 35.7445C17.1304 35.4607 16.7064 35.3702 16.3018 35.4965L10.5611 37.2877C9.90592 37.4921 9.44835 38.1658 9.44835 38.9261V44.0929H6.18972V10.5941ZM10.6819 38.9262C10.6819 38.7821 10.7687 38.6544 10.8928 38.6156L13.1031 37.9259V44.093H10.6818V38.9262H10.6819ZM14.3367 44.093V37.541L16.6335 36.8244C16.6645 36.8146 16.6934 36.8207 16.7192 36.8426C16.7449 36.8645 16.758 36.8939 16.758 36.93V44.093H14.3367ZM24.5535 44.093V41.1833H33.6554V44.093H24.5535ZM40.8717 43.746C40.8717 43.9374 40.7324 44.093 40.5612 44.093H34.889V41.1833H40.8717V43.746Z" fill="#000000"/>
<path d="M10.0649 33.048C10.13 33.048 10.1963 33.0364 10.2615 33.0119L12.5515 32.1516C12.8743 32.0304 13.0481 31.6395 12.9396 31.2785C12.831 30.9176 12.4813 30.7233 12.1584 30.8448L9.86843 31.7051C9.54556 31.8263 9.3718 32.2172 9.48035 32.5782C9.56695 32.8661 9.80724 33.048 10.0649 33.048Z" fill="#000000"/>
<path d="M27.2547 27.9941H33.3033C33.8769 27.9941 34.3435 27.4726 34.3435 26.8316V25.1724C34.3435 24.5313 33.8769 24.0098 33.3033 24.0098H27.2547C26.6811 24.0098 26.2146 24.5313 26.2146 25.1724V26.8316C26.2146 27.4726 26.6812 27.9941 27.2547 27.9941ZM27.4481 25.3884H33.1099V26.6155H27.4481V25.3884Z" fill="#000000"/>
<path d="M27.2547 33.2363H33.3033C33.8769 33.2363 34.3435 32.7148 34.3435 32.0737V30.4145C34.3435 29.7734 33.8769 29.252 33.3033 29.252H27.2547C26.6811 29.252 26.2146 29.7735 26.2146 30.4145V32.0737C26.2146 32.7148 26.6812 33.2363 27.2547 33.2363ZM27.4481 30.6306H33.1099V31.8577H27.4481V30.6306Z" fill="#000000"/>
<path d="M27.2547 38.5312H29.2553C29.8289 38.5312 30.2956 38.0097 30.2956 37.3687V35.7095C30.2956 35.0684 29.8289 34.5469 29.2553 34.5469H27.2547C26.6811 34.5469 26.2146 35.0684 26.2146 35.7095V37.3687C26.2146 38.0097 26.6812 38.5312 27.2547 38.5312ZM27.4481 35.9256H29.062V37.1526H27.4481V35.9256Z" fill="#000000"/>
<g clip-path="url(#clip0_1108_4904)">
<path d="M35.0877 45.5449C28.8 45.5449 23.6842 39.8272 23.6842 32.7998C23.6842 25.7723 28.8 20.0547 35.0877 20.0547C41.3754 20.0547 46.4912 25.7723 46.4912 32.7998C46.4912 39.8272 41.3754 45.5449 35.0877 45.5449Z" fill="white"/>
<path d="M35.0877 45.5449C28.8 45.5449 23.6842 39.8272 23.6842 32.7998C23.6842 25.7723 28.8 20.0547 35.0877 20.0547C41.3754 20.0547 46.4912 25.7723 46.4912 32.7998C46.4912 39.8272 41.3754 45.5449 35.0877 45.5449ZM35.0877 22.0155C29.7667 22.0155 25.4386 26.8547 25.4386 32.7998C25.4386 38.7449 29.7667 43.5841 35.0877 43.5841C40.4088 43.5841 44.7368 38.7449 44.7368 32.7998C44.7368 26.8547 40.4088 22.0155 35.0877 22.0155Z" fill="#000000"/>
<path d="M33.3325 37.7015C33.1009 37.7015 32.8763 37.5975 32.7114 37.4152L29.2027 33.4936C28.8605 33.1113 28.8605 32.4897 29.2027 32.1073C29.5448 31.725 30.1009 31.725 30.443 32.1073L33.2886 35.2877L38.8114 28.2328C39.1307 27.8211 39.6851 27.7838 40.05 28.1407C40.4149 28.4975 40.4518 29.1152 40.1325 29.523L33.9921 37.3662C33.8325 37.5701 33.6027 37.6917 33.3606 37.7015C33.3518 37.7015 33.3413 37.7015 33.3325 37.7015Z" fill="#000000"/>
</g>
</svg>
